<?xml version="1.0" standalone="no"?>
<!DOCTYPE svg PUBLIC "-//W3C//DTD SVG 20010904//EN"
 "http://www.w3.org/TR/2001/REC-SVG-20010904/DTD/svg10.dtd">
<svg version="1.0" xmlns="http://www.w3.org/2000/svg"
 width="200.000000pt" height="200.000000pt" viewBox="0 0 200.000000 200.000000"
 preserveAspectRatio="xMidYMid meet">
<metadata>
Created by potrace 1.16, written by Peter Selinger 2001-2019
</metadata>
<g transform="translate(0.000000,200.000000) scale(0.100000,-0.100000)"
fill="#000000" stroke="none">
<path d="M0 1000 l0 -1000 1000 0 1000 0 0 1000 0 1000 -1000 0 -1000 0 0
-1000z m976 419 l44 -21 57 22 c102 39 248 28 325 -23 l34 -24 33 23 c48 33
121 47 212 42 98 -6 158 -39 204 -113 29 -46 30 -53 29 -154 -1 -91 -5 -119
-32 -198 -87 -258 -196 -375 -362 -390 -81 -8 -162 12 -215 52 -37 28 -45 32
-55 20 -7 -8 -37 -27 -69 -42 -48 -23 -69 -27 -146 -28 -75 0 -97 4 -134 23
l-44 23 -51 -22 c-72 -32 -212 -33 -274 -2 l-43 21 -47 -21 c-66 -30 -191 -30
-247 0 -155 82 -151 252 14 598 65 137 102 184 167 215 61 30 168 26 214 -8
l31 -23 44 21 c91 44 231 48 311 9z"/>
<path d="M770 1390 c-65 -12 -93 -25 -133 -59 l-35 -31 -10 29 c-13 38 -58 61
-117 61 -100 0 -142 -39 -221 -205 -80 -169 -117 -285 -118 -377 -1 -90 15
-120 85 -156 60 -32 156 -27 224 11 46 26 48 27 74 8 81 -56 225 -53 310 9 24
17 25 16 69 -14 41 -29 49 -31 130 -31 98 1 151 20 213 78 l34 32 30 -40 c37
-48 97 -74 176 -74 130 -2 223 66 295 214 57 118 97 269 92 350 -8 127 -69
187 -196 194 -89 4 -141 -10 -202 -53 l-46 -33 -18 25 c-32 42 -100 65 -193
65 -72 0 -91 -4 -143 -30 -51 -25 -62 -28 -72 -16 -33 40 -138 60 -228 43z
m145 -64 c43 -18 60 -51 46 -88 -15 -40 -52 -59 -127 -66 -64 -7 -68 -9 -81
-39 l-13 -33 44 0 c60 0 91 -25 82 -67 -12 -53 -49 -78 -119 -80 -60 -1 -62
-2 -73 -35 -20 -53 -19 -53 60 -50 70 3 75 2 91 -22 45 -69 -44 -156 -159
-156 -121 0 -174 66 -156 193 19 127 110 345 169 401 51 49 169 70 236 42z
m-397 -8 c30 -30 6 -113 -97 -330 -28 -59 -51 -110 -51 -113 0 -3 16 -5 36 -5
56 0 74 -15 74 -59 0 -76 -80 -128 -182 -119 -43 5 -57 11 -81 38 -27 30 -29
37 -23 86 15 132 143 434 205 487 35 29 97 37 119 15z m813 -11 c41 -27 54
-61 45 -112 -14 -74 -88 -116 -148 -84 -17 9 -19 17 -14 49 7 46 -4 56 -45 40
-22 -10 -38 -30 -63 -84 -47 -98 -78 -199 -74 -238 3 -30 6 -33 38 -33 28 0
38 6 57 34 28 42 29 57 3 64 -29 8 -35 34 -16 73 18 39 49 54 110 54 62 0 90
-32 84 -98 -6 -59 -44 -146 -87 -194 -97 -110 -268 -118 -331 -16 -39 65 -16
202 61 368 70 149 138 199 270 200 63 0 82 -4 110 -23z m416 3 c18 -10 40 -34
49 -52 47 -91 -44 -397 -150 -502 -90 -90 -254 -87 -304 5 -23 42 -10 161 32
283 75 223 134 284 276 285 48 1 74 -4 97 -19z"/>
<path d="M1596 1181 c-35 -39 -124 -296 -113 -326 9 -23 54 -18 71 8 26 39 97
239 103 289 6 46 5 48 -19 48 -14 0 -33 -8 -42 -19z"/>
</g>
</svg>
